<!DOCTYPE svg PUBLIC "-//W3C//DTD SVG 20010904//EN" "http://www.w3.org/TR/2001/REC-SVG-20010904/DTD/svg10.dtd">
<svg version="1.0" xmlns="http://www.w3.org/2000/svg" width="314px" height="314px" viewBox="0 0 3140 3140" preserveAspectRatio="xMidYMid meet">
<g id="layer101" fill="#ffffff" stroke="none">
 <path d="M1270 3120 c-632 -137 -1098 -610 -1227 -1245 -28 -138 -25 -463 5 -602 93 -427 318 -761 672 -998 464 -311 1069 -347 1572 -95 299 150 561 414 706 711 49 102 104 263 126 371 25 119 22 543 -3 659 -37 166 -113 355 -193 481 l-36 55 89 298 c50 163 87 300 84 303 -3 3 -137 -34 -298 -82 -160 -47 -295 -87 -300 -86 -4 0 -25 11 -47 25 -137 86 -320 160 -492 199 -107 24 -133 26 -344 25 -183 0 -246 -4 -314 -19z"/>
 </g>

</svg>