<?xml version="1.0" encoding="UTF-8" standalone="no"?>
<!DOCTYPE svg PUBLIC "-//W3C//DTD SVG 1.1//EN" "http://www.w3.org/Graphics/SVG/1.1/DTD/svg11.dtd">
<svg version="1.1" xmlns="http://www.w3.org/2000/svg" xmlns:xlink="http://www.w3.org/1999/xlink" 
preserveAspectRatio="xMidYMid meet" 
viewBox="341.56321839080454 411.9080459770116 176.55172413793082 171.9540229885058" 
width="120" height="120" stroke="red" stroke-width="4px">
<defs><path d="M490.11 478.45C490.11 442.8 459.55 413.91 421.84 413.91C384.13 413.91 353.56 442.8 353.56 478.45C353.56 514.1 384.13 542.99 421.84 542.99C431 542.99 439.73 541.29 447.72 538.2C449.4 539.34 457.24 541.9 471.23 545.86L469.06 525.07C483.1 506.21 490.11 490.67 490.11 478.45Z" id="bsyXNgLYE"></path></defs><g><g><g><filter id="shadow4850061" x="290.56" y="350.91" width="270.55" height="275.95" filterUnits="userSpaceOnUse" primitiveUnits="userSpaceOnUse"><feFlood></feFlood><feComposite in2="SourceAlpha" operator="in"></feComposite><feGaussianBlur stdDeviation="4.47"></feGaussianBlur><feOffset dx="8" dy="18" result="afterOffset"></feOffset><feFlood flood-color="#efefef" flood-opacity="0.5"></feFlood><feComposite in2="afterOffset" operator="in"></feComposite><feMorphology operator="dilate" radius="0"></feMorphology><feComposite in2="SourceAlpha" operator="out"></feComposite></filter><path d="M490.11 478.45C490.11 442.8 459.55 413.91 421.84 413.91C384.13 413.91 353.56 442.8 353.56 478.45C353.56 514.1 384.13 542.99 421.84 542.99C431 542.99 439.73 541.29 447.72 538.2C449.4 539.34 457.24 541.9 471.23 545.86L469.06 525.07C483.1 506.21 490.11 490.67 490.11 478.45Z" id="c1rqEteWeh" fill="white" fill-opacity="1" filter="url(#shadow4850061)"></path></g><use xlink:href="#bsyXNgLYE" opacity="1" fill="#e7ebee" fill-opacity="1"></use></g></g></svg>