<!DOCTYPE svg PUBLIC "-//W3C//DTD SVG 20010904//EN" "http://www.w3.org/TR/2001/REC-SVG-20010904/DTD/svg10.dtd">
<svg version="1.0" xmlns="http://www.w3.org/2000/svg" width="1003px" height="1188px" viewBox="0 0 10030 11880" preserveAspectRatio="xMidYMid meet">
<g id="layer101" fill="#3c3c3c" stroke="none">
 <path d="M9148 11789 c-15 -8 -18 -25 -18 -112 0 -67 4 -107 12 -115 17 -17 759 -17 776 0 8 8 12 48 12 115 0 91 -2 103 -19 113 -26 14 -739 13 -763 -1z m73 -116 c1 -21 3 -30 6 -20 7 26 35 22 31 -5 -5 -35 -45 -37 -58 -3 -14 38 -12 65 5 65 10 0 15 -11 16 -37z m117 5 c-2 -28 -7 -33 -28 -33 -16 0 -26 6 -28 18 -6 30 6 47 33 47 24 0 26 -3 23 -32z m42 -3 c0 -19 -4 -35 -10 -35 -5 0 -10 16 -10 35 0 19 5 35 10 35 6 0 10 -16 10 -35z m41 13 l2 -23 4 23 c2 12 11 22 19 22 19 0 18 -44 -1 -60 -23 -19 -45 -4 -45 30 0 34 19 42 21 8z m88 -5 c-2 -45 -9 -63 -25 -63 -18 0 -19 61 -2 78 19 19 28 14 27 -15z m69 15 c9 -9 12 -9 12 0 0 7 7 12 15 12 13 0 14 -4 5 -21 -7 -11 -9 -31 -6 -43 5 -20 2 -23 -24 -24 -32 -1 -37 7 -19 25 8 8 8 17 0 31 -18 33 -8 45 17 20z m118 -10 c-3 -13 -6 -33 -6 -45 0 -14 -6 -23 -15 -23 -19 0 -21 60 -3 78 19 19 31 14 24 -10z m34 -13 c0 -19 -4 -35 -10 -35 -5 0 -10 16 -10 35 0 19 5 35 10 35 6 0 10 -16 10 -35z m49 8 c-2 -41 -9 -63 -20 -63 -10 0 -13 73 -2 83 14 14 23 6 22 -20z m61 18 c0 -5 -6 -12 -12 -14 -7 -3 -3 -6 10 -6 25 -1 28 -13 7 -31 -30 -25 -70 15 -45 45 14 17 40 20 40 6z m-460 -81 c0 -5 -4 -10 -10 -10 -5 0 -10 5 -10 10 0 6 5 10 10 10 6 0 10 -4 10 -10z m350 0 c0 -5 -4 -10 -10 -10 -5 0 -10 5 -10 10 0 6 5 10 10 10 6 0 10 -4 10 -10z"/>
 <path d="M9306 11691 c-4 -7 -5 -15 -2 -18 9 -9 19 4 14 18 -4 11 -6 11 -12 0z"/>
 <path d="M4720 11580 c-875 -63 -1705 -365 -2390 -871 -1027 -757 -1681 -1875 -1834 -3136 -18 -142 -40 -509 -32 -529 5 -12 680 -14 4557 -14 l4552 0 -6 178 c-39 1144 -517 2235 -1337 3052 -742 740 -1700 1194 -2750 1305 -177 19 -590 27 -760 15z"/>
 <path d="M5605 6614 c-1842 -6 -3756 -12 -4252 -13 l-903 -1 0 -1071 c0 -628 4 -1087 9 -1108 5 -20 15 -79 21 -131 38 -328 164 -707 331 -998 135 -234 256 -391 453 -587 497 -496 1128 -769 1831 -792 627 -21 1229 171 1725 549 63 48 136 106 162 128 l46 41 59 -52 c380 -333 880 -557 1418 -635 167 -25 533 -25 705 -1 500 70 956 263 1345 571 121 96 336 310 429 426 86 109 200 280 264 395 156 284 277 655 312 960 7 55 16 122 21 148 11 57 11 419 2 1435 l-6 752 -311 -2 c-171 -1 -1818 -7 -3661 -14z"/>
 <path d="M5016 1843 c-11 -71 -6 -388 9 -517 49 -420 185 -742 413 -978 101 -105 134 -127 201 -135 42 -5 59 -1 105 21 77 38 101 74 101 153 0 79 -16 100 -128 176 -224 151 -419 432 -537 772 -43 125 -100 348 -120 473 -13 80 -33 96 -44 35z"/>
 </g>
<g id="layer102" fill="#f60232" stroke="none">
 <path d="M9148 11789 c-15 -8 -18 -25 -18 -112 0 -67 4 -107 12 -115 17 -17 759 -17 776 0 8 8 12 48 12 115 0 91 -2 103 -19 113 -26 14 -739 13 -763 -1z m73 -116 c1 -21 3 -30 6 -20 7 26 35 22 31 -5 -5 -35 -45 -37 -58 -3 -14 38 -12 65 5 65 10 0 15 -11 16 -37z m117 5 c-2 -28 -7 -33 -28 -33 -16 0 -26 6 -28 18 -6 30 6 47 33 47 24 0 26 -3 23 -32z m42 -3 c0 -19 -4 -35 -10 -35 -5 0 -10 16 -10 35 0 19 5 35 10 35 6 0 10 -16 10 -35z m41 13 l2 -23 4 23 c2 12 11 22 19 22 19 0 18 -44 -1 -60 -23 -19 -45 -4 -45 30 0 34 19 42 21 8z m88 -5 c-2 -45 -9 -63 -25 -63 -18 0 -19 61 -2 78 19 19 28 14 27 -15z m69 15 c9 -9 12 -9 12 0 0 7 7 12 15 12 13 0 14 -4 5 -21 -7 -11 -9 -31 -6 -43 5 -20 2 -23 -24 -24 -32 -1 -37 7 -19 25 8 8 8 17 0 31 -18 33 -8 45 17 20z m118 -10 c-3 -13 -6 -33 -6 -45 0 -14 -6 -23 -15 -23 -19 0 -21 60 -3 78 19 19 31 14 24 -10z m34 -13 c0 -19 -4 -35 -10 -35 -5 0 -10 16 -10 35 0 19 5 35 10 35 6 0 10 -16 10 -35z m49 8 c-2 -41 -9 -63 -20 -63 -10 0 -13 73 -2 83 14 14 23 6 22 -20z m61 18 c0 -5 -6 -12 -12 -14 -7 -3 -3 -6 10 -6 25 -1 28 -13 7 -31 -30 -25 -70 15 -45 45 14 17 40 20 40 6z m-460 -81 c0 -5 -4 -10 -10 -10 -5 0 -10 5 -10 10 0 6 5 10 10 10 6 0 10 -4 10 -10z m350 0 c0 -5 -4 -10 -10 -10 -5 0 -10 5 -10 10 0 6 5 10 10 10 6 0 10 -4 10 -10z"/>
 <path d="M9306 11691 c-4 -7 -5 -15 -2 -18 9 -9 19 4 14 18 -4 11 -6 11 -12 0z"/>
 <path d="M5605 6614 c-1842 -6 -3756 -12 -4252 -13 l-903 -1 0 -1071 c0 -628 4 -1087 9 -1108 5 -20 15 -79 21 -131 38 -328 164 -707 331 -998 135 -234 256 -391 453 -587 497 -496 1128 -769 1831 -792 627 -21 1229 171 1725 549 63 48 136 106 162 128 l46 41 59 -52 c380 -333 880 -557 1418 -635 167 -25 533 -25 705 -1 500 70 956 263 1345 571 121 96 336 310 429 426 86 109 200 280 264 395 156 284 277 655 312 960 7 55 16 122 21 148 11 57 11 419 2 1435 l-6 752 -311 -2 c-171 -1 -1818 -7 -3661 -14z"/>
 </g>
<g id="layer103" fill="#d01557" stroke="none">
 <path d="M9148 11789 c-15 -8 -18 -25 -18 -112 0 -67 4 -107 12 -115 9 -9 98 -12 340 -12 180 0 328 2 328 4 0 2 -7 22 -15 45 -13 39 -12 46 10 41 5 -1 2 7 -8 17 -16 18 -16 20 1 37 9 11 11 16 5 12 -7 -4 -13 -2 -13 3 0 6 -4 11 -8 11 -5 0 -7 -15 -6 -32 4 -39 -4 -68 -17 -68 -5 0 -9 26 -8 58 1 31 -3 69 -9 83 -6 15 -8 30 -5 33 11 11 -571 6 -589 -5z m73 -116 c1 -21 3 -30 6 -20 7 26 35 22 31 -5 -5 -35 -45 -37 -58 -3 -14 38 -12 65 5 65 10 0 15 -11 16 -37z m117 5 c-2 -28 -7 -33 -28 -33 -16 0 -26 6 -28 18 -6 30 6 47 33 47 24 0 26 -3 23 -32z m42 -3 c0 -19 -4 -35 -10 -35 -5 0 -10 16 -10 35 0 19 5 35 10 35 6 0 10 -16 10 -35z m41 13 l2 -23 4 23 c2 12 11 22 19 22 19 0 18 -44 -1 -60 -23 -19 -45 -4 -45 30 0 34 19 42 21 8z m88 -5 c-2 -45 -9 -63 -25 -63 -18 0 -19 61 -2 78 19 19 28 14 27 -15z m69 15 c9 -9 12 -9 12 0 0 7 7 12 15 12 13 0 14 -4 5 -21 -7 -11 -9 -31 -6 -43 5 -20 2 -23 -24 -24 -32 -1 -37 7 -19 25 8 8 8 17 0 31 -18 33 -8 45 17 20z m118 -10 c-3 -13 -6 -33 -6 -45 0 -14 -6 -23 -15 -23 -19 0 -21 60 -3 78 19 19 31 14 24 -10z m34 -13 c0 -19 -4 -35 -10 -35 -5 0 -10 16 -10 35 0 19 5 35 10 35 6 0 10 -16 10 -35z m-350 -55 c0 -5 -4 -10 -10 -10 -5 0 -10 5 -10 10 0 6 5 10 10 10 6 0 10 -4 10 -10z m350 0 c0 -5 -4 -10 -10 -10 -5 0 -10 5 -10 10 0 6 5 10 10 10 6 0 10 -4 10 -10z"/>
 <path d="M9306 11691 c-4 -7 -5 -15 -2 -18 9 -9 19 4 14 18 -4 11 -6 11 -12 0z"/>
 <path d="M9883 11793 c4 -3 10 -3 14 0 3 4 0 7 -7 7 -7 0 -10 -3 -7 -7z"/>
 <path d="M9915 11780 c3 -5 8 -10 11 -10 3 0 2 5 -1 10 -3 6 -8 10 -11 10 -3 0 -2 -4 1 -10z"/>
 <path d="M9832 11694 c-7 -8 -8 -14 -3 -14 10 0 25 19 20 25 -2 1 -10 -3 -17 -11z"/>
 <path d="M9844 11648 c-4 -7 -3 -8 4 -4 12 7 16 16 8 16 -3 0 -8 -5 -12 -12z"/>
 <path d="M5605 6614 c-1842 -6 -3756 -12 -4252 -13 l-903 -1 0 -1071 c0 -628 4 -1087 9 -1108 5 -20 15 -79 21 -131 38 -328 164 -707 331 -998 135 -234 256 -391 453 -587 497 -496 1128 -769 1831 -792 627 -21 1229 171 1725 549 63 48 136 106 162 128 l46 41 59 -52 c380 -333 880 -557 1418 -635 167 -25 533 -25 705 -1 500 70 956 263 1345 571 121 96 336 310 429 426 86 109 200 280 264 395 156 284 277 655 312 960 7 55 16 122 21 148 11 57 11 419 2 1435 l-6 752 -311 -2 c-171 -1 -1818 -7 -3661 -14z"/>
 </g>
<g id="layer104" fill="#f80251" stroke="none">
 <path d="M9148 11789 c-15 -8 -18 -25 -18 -112 0 -67 4 -107 12 -115 9 -9 98 -12 340 -12 180 0 328 2 328 4 0 2 -7 22 -15 45 -13 39 -12 46 10 41 5 -1 2 7 -8 17 -16 18 -16 20 1 37 9 11 11 16 5 12 -7 -4 -13 -2 -13 3 0 6 -4 11 -8 11 -5 0 -7 -15 -6 -32 4 -39 -4 -68 -17 -68 -5 0 -9 26 -8 58 1 31 -3 69 -9 83 -6 15 -8 30 -5 33 11 11 -571 6 -589 -5z m73 -116 c1 -21 3 -30 6 -20 7 26 35 22 31 -5 -5 -35 -45 -37 -58 -3 -14 38 -12 65 5 65 10 0 15 -11 16 -37z m117 5 c-2 -28 -7 -33 -28 -33 -16 0 -26 6 -28 18 -6 30 6 47 33 47 24 0 26 -3 23 -32z m42 -3 c0 -19 -4 -35 -10 -35 -5 0 -10 16 -10 35 0 19 5 35 10 35 6 0 10 -16 10 -35z m41 13 l2 -23 4 23 c2 12 11 22 19 22 19 0 18 -44 -1 -60 -23 -19 -45 -4 -45 30 0 34 19 42 21 8z m88 -5 c-2 -45 -9 -63 -25 -63 -18 0 -19 61 -2 78 19 19 28 14 27 -15z m69 15 c9 -9 12 -9 12 0 0 7 7 12 15 12 13 0 14 -4 5 -21 -7 -11 -9 -31 -6 -43 5 -20 2 -23 -24 -24 -32 -1 -37 7 -19 25 8 8 8 17 0 31 -18 33 -8 45 17 20z m118 -10 c-3 -13 -6 -33 -6 -45 0 -14 -6 -23 -15 -23 -19 0 -21 60 -3 78 19 19 31 14 24 -10z m34 -13 c0 -19 -4 -35 -10 -35 -5 0 -10 16 -10 35 0 19 5 35 10 35 6 0 10 -16 10 -35z m-350 -55 c0 -5 -4 -10 -10 -10 -5 0 -10 5 -10 10 0 6 5 10 10 10 6 0 10 -4 10 -10z m350 0 c0 -5 -4 -10 -10 -10 -5 0 -10 5 -10 10 0 6 5 10 10 10 6 0 10 -4 10 -10z"/>
 <path d="M9306 11691 c-4 -7 -5 -15 -2 -18 9 -9 19 4 14 18 -4 11 -6 11 -12 0z"/>
 <path d="M9883 11793 c4 -3 10 -3 14 0 3 4 0 7 -7 7 -7 0 -10 -3 -7 -7z"/>
 <path d="M9915 11780 c3 -5 8 -10 11 -10 3 0 2 5 -1 10 -3 6 -8 10 -11 10 -3 0 -2 -4 1 -10z"/>
 <path d="M9832 11694 c-7 -8 -8 -14 -3 -14 10 0 25 19 20 25 -2 1 -10 -3 -17 -11z"/>
 <path d="M9844 11648 c-4 -7 -3 -8 4 -4 12 7 16 16 8 16 -3 0 -8 -5 -12 -12z"/>
 </g>
<g id="layer105" fill="#f90270" stroke="none">
 <path d="M9148 11789 c-15 -8 -18 -25 -18 -112 0 -67 4 -107 12 -115 9 -9 78 -12 250 -12 l238 0 -10 25 c-5 14 -7 31 -4 39 3 8 1 23 -6 33 -10 16 -10 16 -5 -3 5 -18 1 -21 -25 -22 -32 -1 -37 7 -19 25 8 8 8 17 -1 33 -14 26 -6 38 15 20 9 -7 15 -8 15 -2 0 6 -5 12 -12 14 -6 2 -12 11 -14 20 -1 8 -5 25 -8 36 -7 20 -3 21 66 25 40 1 -46 4 -192 5 -165 1 -272 -2 -282 -9z m73 -116 c1 -21 3 -30 6 -20 7 26 35 22 31 -5 -5 -35 -45 -37 -58 -3 -14 38 -12 65 5 65 10 0 15 -11 16 -37z m117 5 c-2 -28 -7 -33 -28 -33 -16 0 -26 6 -28 18 -6 30 6 47 33 47 24 0 26 -3 23 -32z m42 -3 c0 -19 -4 -35 -10 -35 -5 0 -10 16 -10 35 0 19 5 35 10 35 6 0 10 -16 10 -35z m41 13 l2 -23 4 23 c2 12 11 22 19 22 19 0 18 -44 -1 -60 -23 -19 -45 -4 -45 30 0 34 19 42 21 8z m88 -5 c-2 -45 -9 -63 -25 -63 -18 0 -19 61 -2 78 19 19 28 14 27 -15z m-129 -63 c0 -5 -4 -10 -10 -10 -5 0 -10 5 -10 10 0 6 5 10 10 10 6 0 10 -4 10 -10z"/>
 <path d="M9306 11691 c-4 -7 -5 -15 -2 -18 9 -9 19 4 14 18 -4 11 -6 11 -12 0z"/>
 <path d="M9883 11793 c4 -3 10 -3 14 0 3 4 0 7 -7 7 -7 0 -10 -3 -7 -7z"/>
 <path d="M9915 11780 c3 -5 8 -10 11 -10 3 0 2 5 -1 10 -3 6 -8 10 -11 10 -3 0 -2 -4 1 -10z"/>
 <path d="M9664 11698 c-4 -7 -3 -8 4 -4 7 4 12 9 12 12 0 8 -9 4 -16 -8z"/>
 <path d="M9702 11679 c-2 -29 3 -40 24 -53 14 -10 31 -15 37 -12 9 3 9 5 0 5 -8 1 -13 15 -13 34 0 17 -5 39 -11 47 -8 11 -9 5 -7 -26 4 -53 -19 -49 -25 4 l-4 37 -1 -36z"/>
 <path d="M9777 11691 c-6 -23 5 -45 23 -49 12 -3 12 0 -2 14 -16 16 -16 20 -3 34 13 14 13 17 1 17 -8 0 -16 -8 -19 -16z"/>
 <path d="M9832 11694 c-7 -8 -8 -14 -3 -14 10 0 25 19 20 25 -2 1 -10 -3 -17 -11z"/>
 <path d="M9844 11648 c-4 -7 -3 -8 4 -4 12 7 16 16 8 16 -3 0 -8 -5 -12 -12z"/>
 <path d="M9668 11613 c7 -3 16 -2 19 1 4 3 -2 6 -13 5 -11 0 -14 -3 -6 -6z"/>
 </g>
<g id="layer106" fill="#fb0195" stroke="none">
 <path d="M9148 11789 c-15 -8 -18 -25 -18 -112 0 -67 4 -107 12 -115 8 -8 55 -12 146 -12 l134 0 -8 28 c-4 15 -8 37 -8 49 -1 11 -5 19 -9 16 -5 -3 -5 11 -2 31 5 24 3 36 -4 36 -6 0 -11 -16 -11 -35 0 -19 -5 -35 -11 -35 -6 0 -9 20 -8 48 1 26 -1 59 -5 74 l-8 28 173 3 c133 2 112 3 -91 4 -166 2 -272 -1 -282 -8z m73 -116 c1 -21 3 -30 6 -20 7 26 35 22 31 -5 -5 -35 -45 -37 -58 -3 -14 38 -12 65 5 65 10 0 15 -11 16 -37z m117 5 c-2 -28 -7 -33 -28 -33 -16 0 -26 6 -28 18 -6 30 6 47 33 47 24 0 26 -3 23 -32z m42 -58 c0 -5 -4 -10 -10 -10 -5 0 -10 5 -10 10 0 6 5 10 10 10 6 0 10 -4 10 -10z"/>
 <path d="M9306 11691 c-4 -7 -5 -15 -2 -18 9 -9 19 4 14 18 -4 11 -6 11 -12 0z"/>
 <path d="M9883 11793 c4 -3 10 -3 14 0 3 4 0 7 -7 7 -7 0 -10 -3 -7 -7z"/>
 <path d="M9915 11780 c3 -5 8 -10 11 -10 3 0 2 5 -1 10 -3 6 -8 10 -11 10 -3 0 -2 -4 1 -10z"/>
 <path d="M9422 11690 c0 -14 2 -19 5 -12 2 6 2 18 0 25 -3 6 -5 1 -5 -13z"/>
 <path d="M9474 11698 c-4 -7 -3 -8 4 -4 12 7 16 16 8 16 -3 0 -8 -5 -12 -12z"/>
 <path d="M9575 11700 c3 -5 8 -10 11 -10 3 0 2 5 -1 10 -3 6 -8 10 -11 10 -3 0 -2 -4 1 -10z"/>
 <path d="M9664 11698 c-4 -7 -3 -8 4 -4 7 4 12 9 12 12 0 8 -9 4 -16 -8z"/>
 <path d="M9702 11679 c-2 -29 3 -40 24 -53 14 -10 31 -15 37 -12 9 3 9 5 0 5 -8 1 -13 15 -13 34 0 17 -5 39 -11 47 -8 11 -9 5 -7 -26 4 -53 -19 -49 -25 4 l-4 37 -1 -36z"/>
 <path d="M9777 11691 c-6 -23 5 -45 23 -49 12 -3 12 0 -2 14 -16 16 -16 20 -3 34 13 14 13 17 1 17 -8 0 -16 -8 -19 -16z"/>
 <path d="M9832 11694 c-7 -8 -8 -14 -3 -14 10 0 25 19 20 25 -2 1 -10 -3 -17 -11z"/>
 <path d="M9556 11653 c-6 -14 -5 -15 5 -6 7 7 10 15 7 18 -3 3 -9 -2 -12 -12z"/>
 <path d="M9444 11648 c-4 -7 -3 -8 4 -4 12 7 16 16 8 16 -3 0 -8 -5 -12 -12z"/>
 <path d="M9844 11648 c-4 -7 -3 -8 4 -4 12 7 16 16 8 16 -3 0 -8 -5 -12 -12z"/>
 <path d="M9540 11620 c0 -6 7 -10 15 -10 8 0 15 2 15 4 0 2 -7 6 -15 10 -8 3 -15 1 -15 -4z"/>
 <path d="M9586 11618 c3 -4 12 -8 20 -8 8 0 14 4 14 8 0 4 -9 8 -19 8 -11 0 -17 -4 -15 -8z"/>
 <path d="M9478 11613 c7 -3 16 -2 19 1 4 3 -2 6 -13 5 -11 0 -14 -3 -6 -6z"/>
 <path d="M9668 11613 c7 -3 16 -2 19 1 4 3 -2 6 -13 5 -11 0 -14 -3 -6 -6z"/>
 </g>
<g id="layer107" fill="#f83367" stroke="none">
 <path d="M9293 11793 c76 -2 198 -2 270 0 73 1 11 3 -138 3 -148 0 -208 -2 -132 -3z"/>
 <path d="M9883 11793 c4 -3 10 -3 14 0 3 4 0 7 -7 7 -7 0 -10 -3 -7 -7z"/>
 <path d="M9134 11778 c-4 -7 -3 -8 4 -4 7 4 12 9 12 12 0 8 -9 4 -16 -8z"/>
 <path d="M9915 11780 c3 -5 8 -10 11 -10 3 0 2 5 -1 10 -3 6 -8 10 -11 10 -3 0 -2 -4 1 -10z"/>
 <path d="M9340 11687 c0 -32 25 -65 39 -52 16 16 26 75 12 75 -6 0 -11 -16 -11 -35 0 -19 -4 -35 -10 -35 -5 0 -10 16 -10 35 0 19 -4 35 -10 35 -5 0 -10 -10 -10 -23z"/>
 <path d="M9422 11690 c0 -14 2 -19 5 -12 2 6 2 18 0 25 -3 6 -5 1 -5 -13z"/>
 <path d="M9474 11698 c-4 -7 -3 -8 4 -4 12 7 16 16 8 16 -3 0 -8 -5 -12 -12z"/>
 <path d="M9575 11700 c3 -5 8 -10 11 -10 3 0 2 5 -1 10 -3 6 -8 10 -11 10 -3 0 -2 -4 1 -10z"/>
 <path d="M9664 11698 c-4 -7 -3 -8 4 -4 7 4 12 9 12 12 0 8 -9 4 -16 -8z"/>
 <path d="M9702 11679 c-2 -29 3 -40 24 -53 14 -10 31 -15 37 -12 9 3 9 5 0 5 -8 1 -13 15 -13 34 0 17 -5 39 -11 47 -8 11 -9 5 -7 -26 4 -53 -19 -49 -25 4 l-4 37 -1 -36z"/>
 <path d="M9777 11691 c-6 -23 5 -45 23 -49 12 -3 12 0 -2 14 -16 16 -16 20 -3 34 13 14 13 17 1 17 -8 0 -16 -8 -19 -16z"/>
 <path d="M9832 11694 c-7 -8 -8 -14 -3 -14 10 0 25 19 20 25 -2 1 -10 -3 -17 -11z"/>
 <path d="M9305 11691 c-3 -5 -1 -12 5 -16 5 -3 10 1 10 9 0 18 -6 21 -15 7z"/>
 <path d="M9271 11683 c-1 -6 -4 -20 -7 -30 -5 -17 -5 -17 6 0 6 10 9 23 6 30 -3 9 -5 9 -5 0z"/>
 <path d="M9221 11658 c0 -16 2 -18 6 -8 3 8 11 18 17 22 7 5 4 8 -6 8 -12 0 -18 -7 -17 -22z"/>
 <path d="M9556 11653 c-6 -14 -5 -15 5 -6 7 7 10 15 7 18 -3 3 -9 -2 -12 -12z"/>
 <path d="M9190 11646 c0 -8 4 -17 9 -20 5 -4 7 3 4 14 -6 23 -13 26 -13 6z"/>
 <path d="M9444 11648 c-4 -7 -3 -8 4 -4 12 7 16 16 8 16 -3 0 -8 -5 -12 -12z"/>
 <path d="M9844 11648 c-4 -7 -3 -8 4 -4 12 7 16 16 8 16 -3 0 -8 -5 -12 -12z"/>
 <path d="M9540 11620 c0 -6 7 -10 15 -10 8 0 15 2 15 4 0 2 -7 6 -15 10 -8 3 -15 1 -15 -4z"/>
 <path d="M9586 11618 c3 -4 12 -8 20 -8 8 0 14 4 14 8 0 4 -9 8 -19 8 -11 0 -17 -4 -15 -8z"/>
 <path d="M9223 11613 c4 -3 10 -3 14 0 3 4 0 7 -7 7 -7 0 -10 -3 -7 -7z"/>
 <path d="M9478 11613 c7 -3 16 -2 19 1 4 3 -2 6 -13 5 -11 0 -14 -3 -6 -6z"/>
 <path d="M9668 11613 c7 -3 16 -2 19 1 4 3 -2 6 -13 5 -11 0 -14 -3 -6 -6z"/>
 </g>
<g id="layer108" fill="#f94c7a" stroke="none">
 <path d="M9293 11793 c76 -2 198 -2 270 0 73 1 11 3 -138 3 -148 0 -208 -2 -132 -3z"/>
 <path d="M9883 11793 c4 -3 10 -3 14 0 3 4 0 7 -7 7 -7 0 -10 -3 -7 -7z"/>
 <path d="M9134 11778 c-4 -7 -3 -8 4 -4 7 4 12 9 12 12 0 8 -9 4 -16 -8z"/>
 <path d="M9915 11780 c3 -5 8 -10 11 -10 3 0 2 5 -1 10 -3 6 -8 10 -11 10 -3 0 -2 -4 1 -10z"/>
 <path d="M9340 11687 c0 -32 25 -65 39 -52 16 16 26 75 12 75 -6 0 -11 -16 -11 -35 0 -19 -4 -35 -10 -35 -5 0 -10 16 -10 35 0 19 -4 35 -10 35 -5 0 -10 -10 -10 -23z"/>
 <path d="M9422 11690 c0 -14 2 -19 5 -12 2 6 2 18 0 25 -3 6 -5 1 -5 -13z"/>
 <path d="M9474 11698 c-4 -7 -3 -8 4 -4 12 7 16 16 8 16 -3 0 -8 -5 -12 -12z"/>
 <path d="M9575 11700 c3 -5 8 -10 11 -10 3 0 2 5 -1 10 -3 6 -8 10 -11 10 -3 0 -2 -4 1 -10z"/>
 <path d="M9664 11698 c-4 -7 -3 -8 4 -4 7 4 12 9 12 12 0 8 -9 4 -16 -8z"/>
 <path d="M9702 11680 c0 -19 2 -27 5 -17 2 9 2 25 0 35 -3 9 -5 1 -5 -18z"/>
 <path d="M9730 11678 c0 -20 -3 -38 -7 -41 -5 -2 -3 -2 4 -1 6 2 14 -4 17 -12 3 -8 11 -14 18 -13 10 0 10 2 1 6 -7 2 -13 19 -13 36 0 18 -5 39 -10 47 -7 11 -10 6 -10 -22z"/>
 <path d="M9794 11698 c-4 -7 -3 -8 4 -4 12 7 16 16 8 16 -3 0 -8 -5 -12 -12z"/>
 <path d="M9305 11691 c-3 -5 -1 -12 5 -16 5 -3 10 1 10 9 0 18 -6 21 -15 7z"/>
 <path d="M9271 11683 c-1 -6 -4 -20 -7 -30 -5 -17 -5 -17 6 0 6 10 9 23 6 30 -3 9 -5 9 -5 0z"/>
 <path d="M9221 11658 c0 -16 2 -18 6 -8 3 8 11 18 17 22 7 5 4 8 -6 8 -12 0 -18 -7 -17 -22z"/>
 <path d="M9560 11660 c0 -7 3 -10 7 -7 3 4 3 10 0 14 -4 3 -7 0 -7 -7z"/>
 <path d="M9190 11646 c0 -8 4 -17 9 -20 5 -4 7 3 4 14 -6 23 -13 26 -13 6z"/>
 <path d="M9444 11648 c-4 -7 -3 -8 4 -4 12 7 16 16 8 16 -3 0 -8 -5 -12 -12z"/>
 <path d="M9844 11648 c-4 -7 -3 -8 4 -4 12 7 16 16 8 16 -3 0 -8 -5 -12 -12z"/>
 <path d="M9540 11620 c0 -6 7 -10 15 -10 8 0 15 2 15 4 0 2 -7 6 -15 10 -8 3 -15 1 -15 -4z"/>
 <path d="M9600 11620 c-13 -8 -12 -10 3 -10 9 0 17 5 17 10 0 12 -1 12 -20 0z"/>
 <path d="M9223 11613 c4 -3 10 -3 14 0 3 4 0 7 -7 7 -7 0 -10 -3 -7 -7z"/>
 <path d="M9478 11613 c7 -3 16 -2 19 1 4 3 -2 6 -13 5 -11 0 -14 -3 -6 -6z"/>
 <path d="M9668 11613 c7 -3 16 -2 19 1 4 3 -2 6 -13 5 -11 0 -14 -3 -6 -6z"/>
 </g>
<g id="layer109" fill="#fa4f92" stroke="none">
 <path d="M9293 11793 c76 -2 198 -2 270 0 73 1 11 3 -138 3 -148 0 -208 -2 -132 -3z"/>
 <path d="M9883 11793 c4 -3 10 -3 14 0 3 4 0 7 -7 7 -7 0 -10 -3 -7 -7z"/>
 <path d="M9134 11778 c-4 -7 -3 -8 4 -4 7 4 12 9 12 12 0 8 -9 4 -16 -8z"/>
 <path d="M9915 11780 c3 -5 8 -10 11 -10 3 0 2 5 -1 10 -3 6 -8 10 -11 10 -3 0 -2 -4 1 -10z"/>
 <path d="M9340 11687 c0 -32 25 -65 39 -52 16 16 26 75 12 75 -6 0 -11 -16 -11 -35 0 -19 -4 -35 -10 -35 -5 0 -10 16 -10 35 0 19 -4 35 -10 35 -5 0 -10 -10 -10 -23z"/>
 <path d="M9422 11690 c0 -14 2 -19 5 -12 2 6 2 18 0 25 -3 6 -5 1 -5 -13z"/>
 <path d="M9474 11698 c-4 -7 -3 -8 4 -4 12 7 16 16 8 16 -3 0 -8 -5 -12 -12z"/>
 <path d="M9575 11700 c3 -5 8 -10 11 -10 3 0 2 5 -1 10 -3 6 -8 10 -11 10 -3 0 -2 -4 1 -10z"/>
 <path d="M9664 11698 c-4 -7 -3 -8 4 -4 7 4 12 9 12 12 0 8 -9 4 -16 -8z"/>
 <path d="M9305 11691 c-3 -5 -1 -12 5 -16 5 -3 10 1 10 9 0 18 -6 21 -15 7z"/>
 <path d="M9271 11683 c-1 -6 -4 -20 -7 -30 -5 -17 -5 -17 6 0 6 10 9 23 6 30 -3 9 -5 9 -5 0z"/>
 <path d="M9740 11656 c0 -19 3 -37 8 -40 4 -2 6 13 4 35 -5 48 -12 51 -12 5z"/>
 <path d="M9221 11658 c0 -16 2 -18 6 -8 3 8 11 18 17 22 7 5 4 8 -6 8 -12 0 -18 -7 -17 -22z"/>
 <path d="M9560 11660 c0 -7 3 -10 7 -7 3 4 3 10 0 14 -4 3 -7 0 -7 -7z"/>
 <path d="M9190 11646 c0 -8 4 -17 9 -20 5 -4 7 3 4 14 -6 23 -13 26 -13 6z"/>
 <path d="M9444 11648 c-4 -7 -3 -8 4 -4 12 7 16 16 8 16 -3 0 -8 -5 -12 -12z"/>
 <path d="M9844 11648 c-4 -7 -3 -8 4 -4 12 7 16 16 8 16 -3 0 -8 -5 -12 -12z"/>
 <path d="M9713 11633 c4 -3 10 -3 14 0 3 4 0 7 -7 7 -7 0 -10 -3 -7 -7z"/>
 <path d="M9540 11620 c0 -6 7 -10 15 -10 8 0 15 2 15 4 0 2 -7 6 -15 10 -8 3 -15 1 -15 -4z"/>
 <path d="M9600 11620 c-13 -8 -12 -10 3 -10 9 0 17 5 17 10 0 12 -1 12 -20 0z"/>
 <path d="M9223 11613 c4 -3 10 -3 14 0 3 4 0 7 -7 7 -7 0 -10 -3 -7 -7z"/>
 <path d="M9478 11613 c7 -3 16 -2 19 1 4 3 -2 6 -13 5 -11 0 -14 -3 -6 -6z"/>
 <path d="M9663 11613 c4 -3 10 -3 14 0 3 4 0 7 -7 7 -7 0 -10 -3 -7 -7z"/>
 </g>
<g id="layer110" fill="#fb4ca9" stroke="none">
 <path d="M9293 11793 c76 -2 198 -2 270 0 73 1 11 3 -138 3 -148 0 -208 -2 -132 -3z"/>
 <path d="M9883 11793 c4 -3 10 -3 14 0 3 4 0 7 -7 7 -7 0 -10 -3 -7 -7z"/>
 <path d="M9134 11778 c-4 -7 -3 -8 4 -4 7 4 12 9 12 12 0 8 -9 4 -16 -8z"/>
 <path d="M9915 11780 c3 -5 8 -10 11 -10 3 0 2 5 -1 10 -3 6 -8 10 -11 10 -3 0 -2 -4 1 -10z"/>
 <path d="M9340 11687 c0 -32 25 -65 39 -52 16 16 26 75 12 75 -6 0 -11 -16 -11 -35 0 -19 -4 -35 -10 -35 -5 0 -10 16 -10 35 0 19 -4 35 -10 35 -5 0 -10 -10 -10 -23z"/>
 <path d="M9422 11690 c0 -14 2 -19 5 -12 2 6 2 18 0 25 -3 6 -5 1 -5 -13z"/>
 <path d="M9664 11698 c-4 -7 -3 -8 4 -4 7 4 12 9 12 12 0 8 -9 4 -16 -8z"/>
 <path d="M9305 11691 c-3 -5 -1 -12 5 -16 5 -3 10 1 10 9 0 18 -6 21 -15 7z"/>
 <path d="M9271 11683 c-1 -6 -4 -20 -7 -30 -5 -17 -5 -17 6 0 6 10 9 23 6 30 -3 9 -5 9 -5 0z"/>
 <path d="M9221 11658 c0 -16 2 -18 6 -8 3 8 11 18 17 22 7 5 4 8 -6 8 -12 0 -18 -7 -17 -22z"/>
 <path d="M9742 11650 c0 -19 2 -27 5 -17 2 9 2 25 0 35 -3 9 -5 1 -5 -18z"/>
 <path d="M9560 11660 c0 -7 3 -10 7 -7 3 4 3 10 0 14 -4 3 -7 0 -7 -7z"/>
 <path d="M9190 11646 c0 -8 4 -17 9 -20 5 -4 7 3 4 14 -6 23 -13 26 -13 6z"/>
 <path d="M9444 11648 c-4 -7 -3 -8 4 -4 12 7 16 16 8 16 -3 0 -8 -5 -12 -12z"/>
 <path d="M9223 11613 c4 -3 10 -3 14 0 3 4 0 7 -7 7 -7 0 -10 -3 -7 -7z"/>
 <path d="M9473 11613 c4 -3 10 -3 14 0 3 4 0 7 -7 7 -7 0 -10 -3 -7 -7z"/>
 </g>
<g id="layer111" fill="#fc71af" stroke="none">
 <path d="M9293 11793 c76 -2 198 -2 270 0 73 1 11 3 -138 3 -148 0 -208 -2 -132 -3z"/>
 <path d="M9883 11793 c4 -3 10 -3 14 0 3 4 0 7 -7 7 -7 0 -10 -3 -7 -7z"/>
 <path d="M9134 11778 c-4 -7 -3 -8 4 -4 7 4 12 9 12 12 0 8 -9 4 -16 -8z"/>
 <path d="M9915 11780 c3 -5 8 -10 11 -10 3 0 2 5 -1 10 -3 6 -8 10 -11 10 -3 0 -2 -4 1 -10z"/>
 <path d="M9342 11690 c0 -14 2 -19 5 -12 2 6 2 18 0 25 -3 6 -5 1 -5 -13z"/>
 <path d="M9664 11698 c-4 -7 -3 -8 4 -4 7 4 12 9 12 12 0 8 -9 4 -16 -8z"/>
 <path d="M9271 11674 c0 -11 3 -14 6 -6 3 7 2 16 -1 19 -3 4 -6 -2 -5 -13z"/>
 <path d="M9220 11660 c0 -11 2 -20 4 -20 2 0 6 9 9 20 3 11 1 20 -4 20 -5 0 -9 -9 -9 -20z"/>
 <path d="M9742 11650 c0 -19 2 -27 5 -17 2 9 2 25 0 35 -3 9 -5 1 -5 -18z"/>
 <path d="M9560 11660 c0 -7 3 -10 7 -7 3 4 3 10 0 14 -4 3 -7 0 -7 -7z"/>
 <path d="M9190 11650 c0 -7 3 -10 7 -7 3 4 3 10 0 14 -4 3 -7 0 -7 -7z"/>
 <path d="M9223 11613 c4 -3 10 -3 14 0 3 4 0 7 -7 7 -7 0 -10 -3 -7 -7z"/>
 </g>
<g id="layer112" fill="#fb8999" stroke="none">
 <path d="M9203 11793 c26 -2 67 -2 90 0 23 2 2 3 -48 3 -49 0 -68 -1 -42 -3z"/>
 <path d="M9883 11793 c4 -3 10 -3 14 0 3 4 0 7 -7 7 -7 0 -10 -3 -7 -7z"/>
 <path d="M9134 11778 c-4 -7 -3 -8 4 -4 7 4 12 9 12 12 0 8 -9 4 -16 -8z"/>
 <path d="M9915 11780 c3 -5 8 -10 11 -10 3 0 2 5 -1 10 -3 6 -8 10 -11 10 -3 0 -2 -4 1 -10z"/>
 <path d="M9342 11690 c0 -14 2 -19 5 -12 2 6 2 18 0 25 -3 6 -5 1 -5 -13z"/>
 <path d="M9271 11674 c0 -11 3 -14 6 -6 3 7 2 16 -1 19 -3 4 -6 -2 -5 -13z"/>
 <path d="M9220 11660 c0 -11 2 -20 4 -20 2 0 6 9 9 20 3 11 1 20 -4 20 -5 0 -9 -9 -9 -20z"/>
 <path d="M9742 11650 c0 -19 2 -27 5 -17 2 9 2 25 0 35 -3 9 -5 1 -5 -18z"/>
 <path d="M9190 11650 c0 -7 3 -10 7 -7 3 4 3 10 0 14 -4 3 -7 0 -7 -7z"/>
 <path d="M9223 11613 c4 -3 10 -3 14 0 3 4 0 7 -7 7 -7 0 -10 -3 -7 -7z"/>
 </g>
<g id="layer113" fill="#fd74c6" stroke="none">
 <path d="M9203 11793 c26 -2 67 -2 90 0 23 2 2 3 -48 3 -49 0 -68 -1 -42 -3z"/>
 <path d="M9134 11778 c-4 -7 -3 -8 4 -4 7 4 12 9 12 12 0 8 -9 4 -16 -8z"/>
 <path d="M9342 11690 c0 -14 2 -19 5 -12 2 6 2 18 0 25 -3 6 -5 1 -5 -13z"/>
 <path d="M9271 11674 c0 -11 3 -14 6 -6 3 7 2 16 -1 19 -3 4 -6 -2 -5 -13z"/>
 <path d="M9220 11660 c0 -11 2 -20 4 -20 2 0 6 9 9 20 3 11 1 20 -4 20 -5 0 -9 -9 -9 -20z"/>
 <path d="M9190 11650 c0 -7 3 -10 7 -7 3 4 3 10 0 14 -4 3 -7 0 -7 -7z"/>
 <path d="M9223 11613 c4 -3 10 -3 14 0 3 4 0 7 -7 7 -7 0 -10 -3 -7 -7z"/>
 </g>

</svg>